<?xml version="1.0" encoding="UTF-8"?>
<mxfile host="Electron" modified="2023-07-14T03:58:38.746Z" agent="Mozilla/5.0 (Macintosh; Intel Mac OS X 10_15_7) AppleWebKit/537.36 (KHTML, like Gecko) draw.io/21.2.1 Chrome/112.0.5615.87 Electron/24.1.2 Safari/537.36" etag="1phmP7uHPIMn1J7CFW9o" version="21.2.1" type="device">
  <diagram id="TRzuBmFYIfwYvDVrO3kz" name="Elements">
    <mxGraphModel dx="3280" dy="-1080" grid="1" gridSize="3" guides="1" tooltips="1" connect="1" arrows="1" fold="1" page="1" pageScale="1" pageWidth="5000" pageHeight="1600" math="0" shadow="0">
      <root>
        <mxCell id="0" />
        <mxCell id="1" parent="0" />
        <mxCell id="YpQ7B4QWrN2nE19uOAhN-8" value="" style="group" parent="1" vertex="1" connectable="0">
          <mxGeometry x="99" y="3585" width="1189.29" height="468" as="geometry" />
        </mxCell>
        <mxCell id="nNENm4iXF6eN5t_JC3I--2" value="&lt;font style=&quot;&quot;&gt;&lt;span style=&quot;font-size: 40px;&quot;&gt;Board Name Here&lt;br&gt;&lt;/span&gt;&lt;font style=&quot;font-size: 30px;&quot;&gt;(dimensions in mm here)&lt;/font&gt;&lt;br&gt;&lt;/font&gt;" style="rounded=1;whiteSpace=wrap;html=1;rotation=90;horizontal=0;arcSize=5;strokeWidth=6;movable=1;resizable=1;rotatable=1;deletable=1;editable=1;locked=0;connectable=1;container=1;" parent="YpQ7B4QWrN2nE19uOAhN-8" vertex="1">
          <mxGeometry x="360.64577038156955" y="-360.64695771391706" width="467.99845923686104" height="1189.2939154278342" as="geometry" />
        </mxCell>
        <mxCell id="nNENm4iXF6eN5t_JC3I--4" value="" style="ellipse;whiteSpace=wrap;html=1;aspect=fixed;strokeColor=default;fillStyle=solid;fillColor=#FF6666;strokeWidth=3;recursiveResize=0;resizable=1;editable=1;movable=1;rotatable=1;deletable=1;locked=0;connectable=1;" parent="YpQ7B4QWrN2nE19uOAhN-8" vertex="1">
          <mxGeometry x="24.085119059930186" y="21.831266795852567" width="31.409209999979833" height="31.409209999979833" as="geometry" />
        </mxCell>
        <mxCell id="YpQ7B4QWrN2nE19uOAhN-2" value="" style="ellipse;whiteSpace=wrap;html=1;aspect=fixed;strokeColor=default;fillStyle=solid;fillColor=#FF6666;strokeWidth=3;recursiveResize=0;resizable=1;editable=1;movable=1;rotatable=1;deletable=1;locked=0;connectable=1;" parent="YpQ7B4QWrN2nE19uOAhN-8" vertex="1">
          <mxGeometry x="24.085119059930186" y="406.9971153229861" width="31.409209999979833" height="31.409209999979833" as="geometry" />
        </mxCell>
        <mxCell id="YpQ7B4QWrN2nE19uOAhN-4" value="" style="ellipse;whiteSpace=wrap;html=1;aspect=fixed;strokeColor=default;fillStyle=solid;fillColor=#FF6666;strokeWidth=3;recursiveResize=0;resizable=1;editable=1;movable=1;rotatable=1;deletable=1;locked=0;connectable=1;" parent="YpQ7B4QWrN2nE19uOAhN-8" vertex="1">
          <mxGeometry x="1126.0484031325832" y="406.9971153229861" width="31.409209999979833" height="31.409209999979833" as="geometry" />
        </mxCell>
        <mxCell id="YpQ7B4QWrN2nE19uOAhN-5" value="" style="ellipse;whiteSpace=wrap;html=1;strokeColor=default;fillStyle=solid;fillColor=#FF6666;strokeWidth=3;recursiveResize=0;resizable=1;editable=1;movable=1;rotatable=1;deletable=1;locked=0;connectable=1;aspect=fixed;" parent="YpQ7B4QWrN2nE19uOAhN-8" vertex="1">
          <mxGeometry x="1126.0484031325832" y="21.831266795852567" width="31.409209999979833" height="31.409209999979833" as="geometry" />
        </mxCell>
        <mxCell id="MCdpzFgtevu4GaBpo46B-16" value="" style="group;" parent="1" vertex="1" connectable="0">
          <mxGeometry x="87" y="4170" width="1351.87" height="496.88" as="geometry" />
        </mxCell>
        <mxCell id="MCdpzFgtevu4GaBpo46B-12" value="" style="ellipse;whiteSpace=wrap;html=1;aspect=fixed;strokeColor=default;fillStyle=solid;fillColor=#FF6666;strokeWidth=3;recursiveResize=0;resizable=1;editable=1;movable=1;rotatable=1;deletable=1;locked=0;connectable=1;" parent="MCdpzFgtevu4GaBpo46B-16" vertex="1">
          <mxGeometry width="37.46427376105255" height="37.46427376105255" as="geometry" />
        </mxCell>
        <mxCell id="MCdpzFgtevu4GaBpo46B-13" value="" style="ellipse;whiteSpace=wrap;html=1;aspect=fixed;strokeColor=default;fillStyle=solid;fillColor=#FF6666;strokeWidth=3;recursiveResize=0;resizable=1;editable=1;movable=1;rotatable=1;deletable=1;locked=0;connectable=1;" parent="MCdpzFgtevu4GaBpo46B-16" vertex="1">
          <mxGeometry y="459.41572623894746" width="37.46427376105255" height="37.46427376105255" as="geometry" />
        </mxCell>
        <mxCell id="MCdpzFgtevu4GaBpo46B-14" value="" style="ellipse;whiteSpace=wrap;html=1;aspect=fixed;strokeColor=default;fillStyle=solid;fillColor=#FF6666;strokeWidth=3;recursiveResize=0;resizable=1;editable=1;movable=1;rotatable=1;deletable=1;locked=0;connectable=1;" parent="MCdpzFgtevu4GaBpo46B-16" vertex="1">
          <mxGeometry x="1314.4054911252556" y="459.41572623894746" width="37.46427376105255" height="37.46427376105255" as="geometry" />
        </mxCell>
        <mxCell id="MCdpzFgtevu4GaBpo46B-15" value="" style="ellipse;whiteSpace=wrap;html=1;strokeColor=default;fillStyle=solid;fillColor=#FF6666;strokeWidth=3;recursiveResize=0;resizable=1;editable=1;movable=1;rotatable=1;deletable=1;locked=0;connectable=1;aspect=fixed;" parent="MCdpzFgtevu4GaBpo46B-16" vertex="1">
          <mxGeometry x="1314.4054911252556" width="37.46427376105255" height="37.46427376105255" as="geometry" />
        </mxCell>
        <mxCell id="MCdpzFgtevu4GaBpo46B-17" value="This page is in progress!" style="text;html=1;align=center;verticalAlign=middle;resizable=0;points=[];autosize=1;strokeColor=none;fillColor=none;fontSize=50;" parent="1" vertex="1">
          <mxGeometry x="370.85" y="3342" width="564" height="72" as="geometry" />
        </mxCell>
        <mxCell id="-wGvcNBnNjMRbEyy-i5o-1" value="" style="group;rotation=0;" parent="1" vertex="1" connectable="0">
          <mxGeometry x="1554" y="3450" width="880" height="598" as="geometry" />
        </mxCell>
        <mxCell id="-wGvcNBnNjMRbEyy-i5o-2" value="" style="group;rotation=0;" parent="-wGvcNBnNjMRbEyy-i5o-1" vertex="1" connectable="0">
          <mxGeometry width="880" height="598" as="geometry" />
        </mxCell>
        <mxCell id="-wGvcNBnNjMRbEyy-i5o-3" value="" style="rhombus;whiteSpace=wrap;html=1;strokeWidth=6;rounded=1;arcSize=50;rotation=0;" parent="-wGvcNBnNjMRbEyy-i5o-2" vertex="1">
          <mxGeometry y="14" width="880" height="570" as="geometry" />
        </mxCell>
        <mxCell id="-wGvcNBnNjMRbEyy-i5o-4" value="&lt;font style=&quot;font-size: 70px;&quot;&gt;&lt;br&gt;&lt;br&gt;&lt;br&gt;Contactor&lt;/font&gt;" style="ellipse;whiteSpace=wrap;html=1;aspect=fixed;strokeWidth=6;rotation=0;" parent="-wGvcNBnNjMRbEyy-i5o-2" vertex="1">
          <mxGeometry x="140" width="598" height="598" as="geometry" />
        </mxCell>
        <mxCell id="-wGvcNBnNjMRbEyy-i5o-5" value="" style="ellipse;whiteSpace=wrap;html=1;aspect=fixed;strokeWidth=15;rotation=0;" parent="-wGvcNBnNjMRbEyy-i5o-2" vertex="1">
          <mxGeometry x="230" y="241" width="100" height="100" as="geometry" />
        </mxCell>
        <mxCell id="-wGvcNBnNjMRbEyy-i5o-6" value="" style="ellipse;whiteSpace=wrap;html=1;aspect=fixed;strokeWidth=15;rotation=0;" parent="-wGvcNBnNjMRbEyy-i5o-2" vertex="1">
          <mxGeometry x="550" y="241" width="100" height="100" as="geometry" />
        </mxCell>
      </root>
    </mxGraphModel>
  </diagram>
</mxfile>
